<svg viewBox="0 0 500 1250" xmlns="http://www.w3.org/2000/svg"><rect width="500" height="1250" fill="#EFF5F1"/><path d="M0,0 L125,0 L0,125 Z" fill="#EFF5F1" fill-opacity="0.88"/><path d="M125,0 L132.7,126.9 L0,125 Z" fill="#D7E5DC" fill-opacity="0.88"/><path d="M125,0 L250,0 L246.2,133.1 Z" fill="#D7E5DC" fill-opacity="0.88"/><path d="M125,0 L246.2,133.1 L132.7,126.9 Z" fill="#B8D0C2" fill-opacity="0.88"/><path d="M250,0 L375,0 L246.2,133.1 Z" fill="#3E6B52" fill-opacity="0.62"/><path d="M375,0 L379.8,119.2 L246.2,133.1 Z" fill="#D7E5DC" fill-opacity="0.88"/><path d="M375,0 L500,0 L500,125 Z" fill="#D7E5DC" fill-opacity="0.88"/><path d="M375,0 L500,125 L379.8,119.2 Z" fill="#D7E5DC" fill-opacity="0.88"/><path d="M0,125 L132.7,126.9 L105.3,250.8 Z" fill="#EFF5F1" fill-opacity="0.88"/><path d="M0,125 L105.3,250.8 L0,250 Z" fill="#EFF5F1" fill-opacity="0.88"/><path d="M132.7,126.9 L246.2,133.1 L105.3,250.8 Z" fill="#D7E5DC" fill-opacity="0.88"/><path d="M246.2,133.1 L245.9,263.1 L105.3,250.8 Z" fill="#D7E5DC" fill-opacity="0.88"/><path d="M246.2,133.1 L379.8,119.2 L359.7,267.4 Z" fill="#D7E5DC" fill-opacity="0.88"/><path d="M246.2,133.1 L359.7,267.4 L245.9,263.1 Z" fill="#3E6B52" fill-opacity="0.62"/><path d="M379.8,119.2 L500,125 L359.7,267.4 Z" fill="#D7E5DC" fill-opacity="0.88"/><path d="M500,125 L500,250 L359.7,267.4 Z" fill="#D7E5DC" fill-opacity="0.88"/><path d="M0,250 L105.3,250.8 L0,375 Z" fill="#EFF5F1" fill-opacity="0.88"/><path d="M105.3,250.8 L100.1,370.9 L0,375 Z" fill="#D7E5DC" fill-opacity="0.88"/><path d="M105.3,250.8 L245.9,263.1 L278.5,365.4 Z" fill="#3E6B52" fill-opacity="0.62"/><path d="M105.3,250.8 L278.5,365.4 L100.1,370.9 Z" fill="#D7E5DC" fill-opacity="0.88"/><path d="M245.9,263.1 L359.7,267.4 L278.5,365.4 Z" fill="#EFF5F1" fill-opacity="0.88"/><path d="M359.7,267.4 L346.4,351.2 L278.5,365.4 Z" fill="#B8D0C2" fill-opacity="0.88"/><path d="M359.7,267.4 L500,250 L500,375 Z" fill="#D7E5DC" fill-opacity="0.88"/><path d="M359.7,267.4 L500,375 L346.4,351.2 Z" fill="#D7E5DC" fill-opacity="0.88"/><path d="M0,375 L100.1,370.9 L96.8,482.5 Z" fill="#D7E5DC" fill-opacity="0.88"/><path d="M0,375 L96.8,482.5 L0,500 Z" fill="#B8D0C2" fill-opacity="0.88"/><path d="M100.1,370.9 L278.5,365.4 L96.8,482.5 Z" fill="#B8D0C2" fill-opacity="0.88"/><path d="M278.5,365.4 L235.9,519.4 L96.8,482.5 Z" fill="#D7E5DC" fill-opacity="0.88"/><path d="M278.5,365.4 L346.4,351.2 L347,471.4 Z" fill="#D7E5DC" fill-opacity="0.88"/><path d="M278.5,365.4 L347,471.4 L235.9,519.4 Z" fill="#3E6B52" fill-opacity="0.62"/><path d="M346.4,351.2 L500,375 L347,471.4 Z" fill="#B8D0C2" fill-opacity="0.88"/><path d="M500,375 L500,500 L347,471.4 Z" fill="#D7E5DC" fill-opacity="0.88"/><path d="M0,500 L96.8,482.5 L0,625 Z" fill="#D7E5DC" fill-opacity="0.88"/><path d="M96.8,482.5 L125.8,595.5 L0,625 Z" fill="#3E6B52" fill-opacity="0.62"/><path d="M96.8,482.5 L235.9,519.4 L226,597.7 Z" fill="#B8D0C2" fill-opacity="0.88"/><path d="M96.8,482.5 L226,597.7 L125.8,595.5 Z" fill="#EFF5F1" fill-opacity="0.88"/><path d="M235.9,519.4 L347,471.4 L226,597.7 Z" fill="#B8D0C2" fill-opacity="0.88"/><path d="M347,471.4 L386.6,612.2 L226,597.7 Z" fill="#B8D0C2" fill-opacity="0.88"/><path d="M347,471.4 L500,500 L500,625 Z" fill="#D7E5DC" fill-opacity="0.88"/><path d="M347,471.4 L500,625 L386.6,612.2 Z" fill="#EFF5F1" fill-opacity="0.88"/><path d="M0,625 L125.8,595.5 L99,745 Z" fill="#3E6B52" fill-opacity="0.62"/><path d="M0,625 L99,745 L0,750 Z" fill="#D7E5DC" fill-opacity="0.88"/><path d="M125.8,595.5 L226,597.7 L99,745 Z" fill="#EFF5F1" fill-opacity="0.88"/><path d="M226,597.7 L278,722.2 L99,745 Z" fill="#D7E5DC" fill-opacity="0.88"/><path d="M226,597.7 L386.6,612.2 L389.4,757.9 Z" fill="#B8D0C2" fill-opacity="0.88"/><path d="M226,597.7 L389.4,757.9 L278,722.2 Z" fill="#B8D0C2" fill-opacity="0.88"/><path d="M386.6,612.2 L500,625 L389.4,757.9 Z" fill="#B8D0C2" fill-opacity="0.88"/><path d="M500,625 L500,750 L389.4,757.9 Z" fill="#B8D0C2" fill-opacity="0.88"/><path d="M0,750 L99,745 L0,875 Z" fill="#D7E5DC" fill-opacity="0.88"/><path d="M99,745 L141.5,872.5 L0,875 Z" fill="#3E6B52" fill-opacity="0.62"/><path d="M99,745 L278,722.2 L262.4,894 Z" fill="#D7E5DC" fill-opacity="0.88"/><path d="M99,745 L262.4,894 L141.5,872.5 Z" fill="#D7E5DC" fill-opacity="0.88"/><path d="M278,722.2 L389.4,757.9 L262.4,894 Z" fill="#D7E5DC" fill-opacity="0.88"/><path d="M389.4,757.9 L371.2,883.4 L262.4,894 Z" fill="#EFF5F1" fill-opacity="0.88"/><path d="M389.4,757.9 L500,750 L500,875 Z" fill="#3E6B52" fill-opacity="0.62"/><path d="M389.4,757.9 L500,875 L371.2,883.4 Z" fill="#D7E5DC" fill-opacity="0.88"/><path d="M0,875 L141.5,872.5 L124.1,1019.1 Z" fill="#EFF5F1" fill-opacity="0.88"/><path d="M0,875 L124.1,1019.1 L0,1000 Z" fill="#EFF5F1" fill-opacity="0.88"/><path d="M141.5,872.5 L262.4,894 L124.1,1019.1 Z" fill="#B8D0C2" fill-opacity="0.88"/><path d="M262.4,894 L232.5,976.2 L124.1,1019.1 Z" fill="#EFF5F1" fill-opacity="0.88"/><path d="M262.4,894 L371.2,883.4 L384.9,987.1 Z" fill="#3E6B52" fill-opacity="0.62"/><path d="M262.4,894 L384.9,987.1 L232.5,976.2 Z" fill="#B8D0C2" fill-opacity="0.88"/><path d="M371.2,883.4 L500,875 L384.9,987.1 Z" fill="#EFF5F1" fill-opacity="0.88"/><path d="M500,875 L500,1000 L384.9,987.1 Z" fill="#3E6B52" fill-opacity="0.62"/><path d="M0,1000 L124.1,1019.1 L0,1125 Z" fill="#D7E5DC" fill-opacity="0.88"/><path d="M124.1,1019.1 L122.3,1118.1 L0,1125 Z" fill="#D7E5DC" fill-opacity="0.88"/><path d="M124.1,1019.1 L232.5,976.2 L222.9,1099.4 Z" fill="#D7E5DC" fill-opacity="0.88"/><path d="M124.1,1019.1 L222.9,1099.4 L122.3,1118.1 Z" fill="#D7E5DC" fill-opacity="0.88"/><path d="M232.5,976.2 L384.9,987.1 L222.9,1099.4 Z" fill="#EFF5F1" fill-opacity="0.88"/><path d="M384.9,987.1 L348.2,1126.7 L222.9,1099.4 Z" fill="#D7E5DC" fill-opacity="0.88"/><path d="M384.9,987.1 L500,1000 L500,1125 Z" fill="#EFF5F1" fill-opacity="0.88"/><path d="M384.9,987.1 L500,1125 L348.2,1126.7 Z" fill="#D7E5DC" fill-opacity="0.88"/><path d="M0,1125 L122.3,1118.1 L125,1250 Z" fill="#3E6B52" fill-opacity="0.62"/><path d="M0,1125 L125,1250 L0,1250 Z" fill="#3E6B52" fill-opacity="0.62"/><path d="M122.3,1118.1 L222.9,1099.4 L125,1250 Z" fill="#B8D0C2" fill-opacity="0.88"/><path d="M222.9,1099.4 L250,1250 L125,1250 Z" fill="#B8D0C2" fill-opacity="0.88"/><path d="M222.9,1099.4 L348.2,1126.7 L375,1250 Z" fill="#D7E5DC" fill-opacity="0.88"/><path d="M222.9,1099.4 L375,1250 L250,1250 Z" fill="#EFF5F1" fill-opacity="0.88"/><path d="M348.2,1126.7 L500,1125 L375,1250 Z" fill="#D7E5DC" fill-opacity="0.88"/><path d="M500,1125 L500,1250 L375,1250 Z" fill="#3E6B52" fill-opacity="0.62"/></svg>