<svg viewBox="0 0 1600 400" xmlns="http://www.w3.org/2000/svg"><rect width="1600" height="400" fill="#FCF1F5"/><path d="M0,0 L160,0 L0,133.3 Z" fill="#F3D9E3" fill-opacity="0.88"/><path d="M160,0 L156.7,144.5 L0,133.3 Z" fill="#C15B85" fill-opacity="0.62"/><path d="M160,0 L320,0 L298.9,150.6 Z" fill="#F3D9E3" fill-opacity="0.88"/><path d="M160,0 L298.9,150.6 L156.7,144.5 Z" fill="#C15B85" fill-opacity="0.62"/><path d="M320,0 L480,0 L298.9,150.6 Z" fill="#F3D9E3" fill-opacity="0.88"/><path d="M480,0 L453.2,113.3 L298.9,150.6 Z" fill="#F3D9E3" fill-opacity="0.88"/><path d="M480,0 L640,0 L644.4,101.6 Z" fill="#F3D9E3" fill-opacity="0.88"/><path d="M480,0 L644.4,101.6 L453.2,113.3 Z" fill="#FCF1F5" fill-opacity="0.88"/><path d="M640,0 L800,0 L644.4,101.6 Z" fill="#FCF1F5" fill-opacity="0.88"/><path d="M800,0 L770.8,127.3 L644.4,101.6 Z" fill="#C15B85" fill-opacity="0.62"/><path d="M800,0 L960,0 L929.9,161.2 Z" fill="#FCF1F5" fill-opacity="0.88"/><path d="M800,0 L929.9,161.2 L770.8,127.3 Z" fill="#F3D9E3" fill-opacity="0.88"/><path d="M960,0 L1120,0 L929.9,161.2 Z" fill="#FCF1F5" fill-opacity="0.88"/><path d="M1120,0 L1101.3,156.8 L929.9,161.2 Z" fill="#F3D9E3" fill-opacity="0.88"/><path d="M1120,0 L1280,0 L1275.3,144.9 Z" fill="#E8BFD0" fill-opacity="0.88"/><path d="M1120,0 L1275.3,144.9 L1101.3,156.8 Z" fill="#F3D9E3" fill-opacity="0.88"/><path d="M1280,0 L1440,0 L1275.3,144.9 Z" fill="#F3D9E3" fill-opacity="0.88"/><path d="M1440,0 L1414.2,155.9 L1275.3,144.9 Z" fill="#E8BFD0" fill-opacity="0.88"/><path d="M1440,0 L1600,0 L1600,133.3 Z" fill="#FCF1F5" fill-opacity="0.88"/><path d="M1440,0 L1600,133.3 L1414.2,155.9 Z" fill="#FCF1F5" fill-opacity="0.88"/><path d="M0,133.3 L156.7,144.5 L134.6,285.9 Z" fill="#E8BFD0" fill-opacity="0.88"/><path d="M0,133.3 L134.6,285.9 L0,266.7 Z" fill="#F3D9E3" fill-opacity="0.88"/><path d="M156.7,144.5 L298.9,150.6 L134.6,285.9 Z" fill="#F3D9E3" fill-opacity="0.88"/><path d="M298.9,150.6 L288.9,256.9 L134.6,285.9 Z" fill="#F3D9E3" fill-opacity="0.88"/><path d="M298.9,150.6 L453.2,113.3 L497.5,297 Z" fill="#F3D9E3" fill-opacity="0.88"/><path d="M298.9,150.6 L497.5,297 L288.9,256.9 Z" fill="#F3D9E3" fill-opacity="0.88"/><path d="M453.2,113.3 L644.4,101.6 L497.5,297 Z" fill="#F3D9E3" fill-opacity="0.88"/><path d="M644.4,101.6 L661.4,256.6 L497.5,297 Z" fill="#F3D9E3" fill-opacity="0.88"/><path d="M644.4,101.6 L770.8,127.3 L768.8,239.7 Z" fill="#F3D9E3" fill-opacity="0.88"/><path d="M644.4,101.6 L768.8,239.7 L661.4,256.6 Z" fill="#C15B85" fill-opacity="0.62"/><path d="M770.8,127.3 L929.9,161.2 L768.8,239.7 Z" fill="#F3D9E3" fill-opacity="0.88"/><path d="M929.9,161.2 L982.7,261.5 L768.8,239.7 Z" fill="#FCF1F5" fill-opacity="0.88"/><path d="M929.9,161.2 L1101.3,156.8 L1094.8,261 Z" fill="#F3D9E3" fill-opacity="0.88"/><path d="M929.9,161.2 L1094.8,261 L982.7,261.5 Z" fill="#F3D9E3" fill-opacity="0.88"/><path d="M1101.3,156.8 L1275.3,144.9 L1094.8,261 Z" fill="#E8BFD0" fill-opacity="0.88"/><path d="M1275.3,144.9 L1285.7,270.6 L1094.8,261 Z" fill="#C15B85" fill-opacity="0.62"/><path d="M1275.3,144.9 L1414.2,155.9 L1475.3,242.1 Z" fill="#C15B85" fill-opacity="0.62"/><path d="M1275.3,144.9 L1475.3,242.1 L1285.7,270.6 Z" fill="#F3D9E3" fill-opacity="0.88"/><path d="M1414.2,155.9 L1600,133.3 L1475.3,242.1 Z" fill="#F3D9E3" fill-opacity="0.88"/><path d="M1600,133.3 L1600,266.7 L1475.3,242.1 Z" fill="#F3D9E3" fill-opacity="0.88"/><path d="M0,266.7 L134.6,285.9 L0,400 Z" fill="#F3D9E3" fill-opacity="0.88"/><path d="M134.6,285.9 L160,400 L0,400 Z" fill="#F3D9E3" fill-opacity="0.88"/><path d="M134.6,285.9 L288.9,256.9 L320,400 Z" fill="#E8BFD0" fill-opacity="0.88"/><path d="M134.6,285.9 L320,400 L160,400 Z" fill="#F3D9E3" fill-opacity="0.88"/><path d="M288.9,256.9 L497.5,297 L320,400 Z" fill="#F3D9E3" fill-opacity="0.88"/><path d="M497.5,297 L480,400 L320,400 Z" fill="#FCF1F5" fill-opacity="0.88"/><path d="M497.5,297 L661.4,256.6 L640,400 Z" fill="#F3D9E3" fill-opacity="0.88"/><path d="M497.5,297 L640,400 L480,400 Z" fill="#E8BFD0" fill-opacity="0.88"/><path d="M661.4,256.6 L768.8,239.7 L640,400 Z" fill="#E8BFD0" fill-opacity="0.88"/><path d="M768.8,239.7 L800,400 L640,400 Z" fill="#E8BFD0" fill-opacity="0.88"/><path d="M768.8,239.7 L982.7,261.5 L960,400 Z" fill="#F3D9E3" fill-opacity="0.88"/><path d="M768.8,239.7 L960,400 L800,400 Z" fill="#E8BFD0" fill-opacity="0.88"/><path d="M982.7,261.5 L1094.8,261 L960,400 Z" fill="#F3D9E3" fill-opacity="0.88"/><path d="M1094.8,261 L1120,400 L960,400 Z" fill="#C15B85" fill-opacity="0.62"/><path d="M1094.8,261 L1285.7,270.6 L1280,400 Z" fill="#FCF1F5" fill-opacity="0.88"/><path d="M1094.8,261 L1280,400 L1120,400 Z" fill="#FCF1F5" fill-opacity="0.88"/><path d="M1285.7,270.6 L1475.3,242.1 L1280,400 Z" fill="#FCF1F5" fill-opacity="0.88"/><path d="M1475.3,242.1 L1440,400 L1280,400 Z" fill="#FCF1F5" fill-opacity="0.88"/><path d="M1475.3,242.1 L1600,266.7 L1600,400 Z" fill="#FCF1F5" fill-opacity="0.88"/><path d="M1475.3,242.1 L1600,400 L1440,400 Z" fill="#F3D9E3" fill-opacity="0.88"/></svg>